<svg width="31" height="20" viewBox="0 0 31 20" fill="none" xmlns="http://www.w3.org/2000/svg">
<path fill-rule="evenodd" clip-rule="evenodd" d="M8.95172 6.0006C9.22879 5.651 9.41581 5.1652 9.36497 4.681C8.9646 4.6981 8.48043 4.9594 8.19529 5.3077C7.93706 5.6168 7.71361 6.1118 7.77531 6.5864C8.22056 6.6222 8.67466 6.3501 8.95172 6.0006ZM10.1021 9.073C10.0933 8.0259 10.923 7.5222 10.9615 7.4972C10.4933 6.7889 9.76736 6.6906 9.50874 6.6797C8.89002 6.616 8.30023 7.0589 7.98751 7.0589C7.67363 7.0589 7.19071 6.6897 6.67655 6.701C6.00219 6.7109 5.3804 7.1089 5.03327 7.7368C4.33449 9.0046 4.85586 10.8771 5.5381 11.9025C5.87216 12.4045 6.26926 12.9686 6.79265 12.9482C7.29642 12.9278 7.48537 12.6091 8.09409 12.6091C8.70147 12.6083 8.8733 12.9474 9.4038 12.9378C9.94515 12.9257 10.2887 12.4253 10.6207 11.9208C11.0023 11.3395 11.1605 10.775 11.1685 10.7467C11.1576 10.7391 10.1141 10.325 10.1021 9.073ZM16.5472 6.0001C16.3454 5.7977 16.0852 5.6402 15.7737 5.5318C15.4649 5.4248 15.0941 5.3706 14.6717 5.3706C14.4011 5.3693 14.1307 5.3839 13.8617 5.4144C13.6374 5.4404 13.4138 5.4731 13.1914 5.5123L13.1261 5.524V12.8849H13.7719V9.7838C13.9894 9.8225 14.2384 9.8429 14.5131 9.8429C14.8787 9.8429 15.2211 9.7942 15.531 9.6987C15.8291 9.6106 16.1069 9.4598 16.347 9.2559C16.5784 9.0547 16.7644 8.8031 16.892 8.5188C17.0242 8.2272 17.0914 7.8842 17.0914 7.4984C17.0914 7.1793 17.0429 6.8922 16.9485 6.6452C16.8572 6.4046 16.7207 6.1853 16.5472 6.0001ZM15.9538 8.8117C15.6223 9.1009 15.153 9.2475 14.5576 9.2475C14.3938 9.2475 14.2389 9.24 14.0967 9.2263C13.9874 9.216 13.8789 9.197 13.7723 9.1696V6.0394C13.8577 6.0231 13.9634 6.0077 14.0874 5.9939C14.2449 5.9764 14.4342 5.9676 14.6513 5.9676C14.9005 5.9651 15.1488 5.9986 15.3893 6.0673C15.5941 6.1259 15.7866 6.224 15.9567 6.3564C16.1116 6.4814 16.2333 6.6439 16.3178 6.8397C16.4031 7.038 16.4459 7.2747 16.4459 7.5426C16.4455 8.0988 16.2798 8.5259 15.9538 8.8117ZM20.9519 12.1958C20.9447 11.9874 20.9419 11.7783 20.9419 11.5699V9.5237C20.9419 9.2812 20.9181 9.0338 20.8721 8.7879C20.8278 8.5434 20.7368 8.3105 20.6046 8.103C20.4734 7.898 20.2895 7.7289 20.0596 7.5997C19.8299 7.4709 19.5312 7.406 19.1713 7.406C18.9085 7.406 18.6519 7.4414 18.4096 7.5118C18.1551 7.5879 17.9146 7.707 17.6972 7.8643L17.6447 7.9022L17.863 8.4334L17.9419 8.378C18.1141 8.2577 18.3025 8.1644 18.5009 8.1013C18.7014 8.0361 18.9102 8.0026 19.1203 8.0022C19.3894 8.0022 19.6045 8.053 19.7578 8.153C19.9136 8.2542 20.0308 8.3797 20.1065 8.5263C20.1854 8.6775 20.237 8.8384 20.2599 9.0054C20.2843 9.1792 20.296 9.3346 20.296 9.4679V9.5271C19.3386 9.5225 18.591 9.6883 18.0945 10.0213C17.5735 10.3704 17.3092 10.8675 17.3092 11.4983C17.3092 11.6799 17.3405 11.8629 17.4022 12.0437C17.4645 12.2266 17.5595 12.3903 17.6836 12.5303C17.8086 12.6719 17.97 12.7874 18.1629 12.8737C18.3551 12.9607 18.5814 13.0045 18.834 13.0045C19.1917 13.0107 19.5438 12.9105 19.8487 12.7157C19.9817 12.6303 20.0997 12.5333 20.2007 12.4286C20.2437 12.3837 20.2847 12.3367 20.3236 12.2878H20.3484L20.4077 12.8853H21.0303L21.0131 12.7894C20.9789 12.5934 20.9584 12.3949 20.9519 12.1958ZM20.296 11.1475C20.296 11.2191 20.2795 11.3174 20.2483 11.4353C20.2065 11.5629 20.148 11.6839 20.0745 11.7949C19.911 12.0441 19.6733 12.2307 19.3983 12.3261C19.2312 12.3833 19.0562 12.411 18.8804 12.4083C18.7645 12.4083 18.6495 12.3879 18.5401 12.3478C18.4339 12.3094 18.3365 12.2487 18.2538 12.1695C18.1672 12.0842 18.0987 11.981 18.0528 11.8666C18.002 11.7445 17.9763 11.5933 17.9763 11.4174C17.9763 11.1295 18.0508 10.8958 18.197 10.725C18.3544 10.5429 18.552 10.4035 18.7728 10.3187C19.0229 10.2209 19.2847 10.1588 19.5508 10.1342C19.7984 10.1093 20.0471 10.0981 20.296 10.1004V11.1475ZM25.3352 7.5255L24.1299 10.935C24.0547 11.1408 23.9845 11.3483 23.9205 11.5504C23.8893 11.6512 23.8596 11.7466 23.8304 11.8374H23.8076C23.7775 11.7379 23.7468 11.6386 23.7154 11.5395C23.6531 11.3395 23.5858 11.1433 23.5169 10.9562L22.2279 7.5255H21.5389L23.3827 12.4578C23.4312 12.5766 23.4384 12.6312 23.4384 12.6532C23.4384 12.6599 23.4361 12.7003 23.382 12.8503C23.2812 13.1179 23.1499 13.372 22.9908 13.6069C22.843 13.8161 22.7077 13.9861 22.5871 14.1115C22.447 14.2573 22.3024 14.3769 22.1555 14.4673C22.0054 14.5594 21.8684 14.634 21.747 14.6903L21.6775 14.7227L21.9021 15.2906L21.9734 15.2631C22.0317 15.2402 22.1415 15.1881 22.308 15.1036C22.4762 15.0173 22.6624 14.8807 22.861 14.6956C23.037 14.5344 23.1933 14.3512 23.3263 14.1502C23.4624 13.9469 23.5986 13.7082 23.7324 13.4432C23.8644 13.1786 23.9966 12.8778 24.1255 12.5482C24.2545 12.217 24.393 11.8466 24.536 11.4487L26.0251 7.5255H25.3352ZM27.3353 0.4167L27.6404 0.417C27.7241 0.4175 27.8078 0.4187 27.8918 0.4208C28.0444 0.425 28.2238 0.4337 28.3964 0.4662C28.5562 0.4962 28.6915 0.5425 28.8224 0.6116C29.0871 0.7513 29.3022 0.9753 29.4362 1.2507C29.5027 1.3866 29.5469 1.5275 29.5756 1.6941C29.6064 1.872 29.6153 2.0591 29.6189 2.2187C29.6212 2.3054 29.6225 2.3924 29.6229 2.4803C29.6236 2.5857 29.6236 2.692 29.6236 2.7978V17.2022C29.6236 17.308 29.6236 17.4138 29.6229 17.5209C29.6226 17.6077 29.6211 17.6946 29.6189 17.7813C29.6149 17.9409 29.6064 18.128 29.5756 18.3071C29.5507 18.4609 29.5037 18.6099 29.4362 18.7493C29.3014 19.0245 29.0861 19.2484 28.8217 19.3888C28.6877 19.4591 28.5444 19.5081 28.3964 19.5342C28.2298 19.562 28.0617 19.577 27.8931 19.5792C27.809 19.5813 27.7249 19.5825 27.6396 19.5825C27.5383 19.5833 27.4362 19.5833 27.3349 19.5833H2.68515C2.58463 19.5833 2.4842 19.5833 2.38252 19.5825C2.29843 19.5825 2.21434 19.5813 2.13226 19.5792C1.96322 19.5769 1.79455 19.5618 1.62772 19.5342C1.47924 19.5084 1.33546 19.4592 1.20121 19.3884C1.06964 19.319 0.949605 19.2281 0.845717 19.1192C0.741347 19.0109 0.654374 18.886 0.587774 18.7493C0.52002 18.6096 0.473024 18.4601 0.448037 18.3059C0.42084 18.1324 0.406233 17.9571 0.404407 17.7813C0.402388 17.6944 0.401235 17.6074 0.400754 17.5205L0.400466 17.2664V2.7341L0.400754 2.4803C0.401235 2.3932 0.402388 2.3062 0.404407 2.2187C0.408443 2.0599 0.416804 1.8733 0.448037 1.6932C0.472832 1.5391 0.519924 1.3898 0.587774 1.2504C0.722128 0.9751 0.937113 0.7514 1.20169 0.6116C1.33566 0.5413 1.47914 0.4924 1.62724 0.4667C1.79427 0.4383 1.96303 0.4231 2.13226 0.4212C2.21588 0.4191 2.29958 0.4179 2.3829 0.4175L2.6888 0.4167H27.3353ZM27.3353 0H2.6888L2.38089 0.00039978C2.29439 0.00079978 2.2079 0.00209976 2.1214 0.00459976C1.93227 0.00719976 1.74352 0.0245004 1.55679 0.0563004C1.37006 0.0897004 1.1891 0.1517 1.01986 0.2404C0.680515 0.421 0.404406 0.7084 0.231034 1.0616C0.145598 1.2376 0.0858215 1.426 0.054011 1.6203C0.0231615 1.8146 0.00643896 2.0109 0.00403636 2.2078C0.00201817 2.2974 0.000768623 2.3874 0.000384206 2.4774L0 2.7978V17.2022L0.000384206 17.523C0.000768623 17.613 0.00201796 17.703 0.00442057 17.7926C0.00961019 17.9884 0.0207586 18.1859 0.0544912 18.3797C0.0881277 18.5767 0.143676 18.7596 0.231034 18.9384C0.403638 19.2923 0.68013 19.58 1.02024 19.7596C1.19198 19.8508 1.36785 19.9083 1.55679 19.9438C1.74304 19.9783 1.93285 19.99 2.1214 19.9954C2.2079 19.9979 2.29401 19.9992 2.38089 19.9992C2.48343 20 2.58626 20 2.6888 20H27.3353C27.4378 20 27.5407 20 27.6432 19.9992C27.7297 19.9987 27.8162 19.9975 27.9027 19.9954C28.0909 19.99 28.2807 19.9783 28.4673 19.9438C28.654 19.9103 28.8347 19.8483 29.0038 19.7596C29.344 19.5801 29.6206 19.2924 29.7931 18.9384C29.8807 18.7596 29.936 18.5767 29.9696 18.3797C30.0033 18.1859 30.0141 17.9884 30.0193 17.7926C30.0217 17.7026 30.0229 17.6126 30.0232 17.523C30.0241 17.4159 30.0241 17.3093 30.0241 17.2022V2.7978C30.0241 2.6907 30.0241 2.5841 30.0232 2.477C30.023 2.3871 30.0216 2.2972 30.0193 2.2074C30.017 2.0106 30.0004 1.8142 29.9696 1.6199C29.938 1.4256 29.8784 1.2372 29.7931 1.0612C29.62 0.7076 29.3437 0.42 29.0038 0.24C28.8347 0.1513 28.654 0.0891999 28.4673 0.0557999C28.2806 0.0240999 28.0918 0.00679998 27.9027 0.00419998C27.8158 0.00159998 27.7292 0.0008 27.6432 0H27.3353Z" fill="#333333"/>
</svg>
