<svg width="14" height="18" viewBox="0 0 14 18" fill="none" xmlns="http://www.w3.org/2000/svg">
<path d="M7.00031 0.875C5.28406 0.875 3.87531 2.28375 3.87531 4V4.625H0.789062L0.750313 5.21125L0.125313 16.4613L0.0859375 17.125H13.9141L13.8753 16.4606L13.2503 5.21063L13.2109 4.625H10.1253V4C10.1253 2.28375 8.71656 0.875 7.00031 0.875ZM7.00031 2.125C7.49759 2.125 7.97451 2.32254 8.32614 2.67417C8.67777 3.02581 8.87531 3.50272 8.87531 4V4.625H5.12531V4C5.12531 3.50272 5.32286 3.02581 5.67449 2.67417C6.02612 2.32254 6.50303 2.125 7.00031 2.125ZM1.96094 5.875H3.87531V7.75H5.12531V5.875H8.87531V7.75H10.1253V5.875H12.0397L12.5866 15.875H1.41469L1.96094 5.875Z" fill="#8F8F8F"/>
</svg>
