<svg width="9" height="7" viewBox="0 0 9 7" fill="none" xmlns="http://www.w3.org/2000/svg">
<path d="M7.28449 0.659454C7.41656 0.533725 7.5923 0.464217 7.77463 0.465596C7.95697 0.466976 8.13164 0.539136 8.26179 0.666849C8.39193 0.794562 8.46737 0.967839 8.47219 1.15012C8.47701 1.3324 8.41083 1.50942 8.28762 1.64383L4.54699 6.32195C4.48267 6.39123 4.40504 6.44683 4.31874 6.48542C4.23244 6.52401 4.13925 6.54481 4.04473 6.54656C3.95021 6.54831 3.85631 6.53098 3.76864 6.49561C3.68097 6.46024 3.60133 6.40755 3.53449 6.3407L1.05387 3.86008C0.984786 3.79571 0.929378 3.71808 0.890948 3.63183C0.852518 3.54558 0.831853 3.45248 0.830188 3.35807C0.828522 3.26366 0.845889 3.16988 0.881252 3.08233C0.916616 2.99478 0.969251 2.91525 1.03602 2.84848C1.10279 2.78171 1.18232 2.72908 1.26987 2.69371C1.35742 2.65835 1.4512 2.64098 1.54561 2.64265C1.64002 2.64432 1.73312 2.66498 1.81937 2.70341C1.90562 2.74184 1.98325 2.79725 2.04762 2.86633L4.01074 4.82852L7.26668 0.680079C7.27254 0.672861 7.2788 0.665975 7.28543 0.659454H7.28449Z" fill="#333333"/>
</svg>
