<svg width="30" height="30" viewBox="0 0 30 30" fill="none" xmlns="http://www.w3.org/2000/svg">
<path fill-rule="evenodd" clip-rule="evenodd" d="M15 29C22.732 29 29 22.732 29 15C29 7.26801 22.732 1 15 1C7.26801 1 1 7.26801 1 15C1 22.732 7.26801 29 15 29ZM15 30C23.2843 30 30 23.2843 30 15C30 6.71573 23.2843 0 15 0C6.71573 0 0 6.71573 0 15C0 23.2843 6.71573 30 15 30Z" fill="#333333"/>
<g clip-path="url(#clip0)">
<path fill-rule="evenodd" clip-rule="evenodd" d="M19.5962 10.4036C19.7915 10.5988 19.7915 10.9154 19.5962 11.1107L15.7071 14.9998L19.5962 18.8888C19.7915 19.0841 19.7915 19.4007 19.5962 19.596C19.4009 19.7912 19.0843 19.7912 18.8891 19.596L15 15.7069L11.1109 19.596C10.9157 19.7912 10.5991 19.7912 10.4038 19.596C10.2085 19.4007 10.2085 19.0841 10.4038 18.8888L14.2929 14.9998L10.4038 11.1107C10.2085 10.9154 10.2085 10.5988 10.4038 10.4036C10.5991 10.2083 10.9157 10.2083 11.1109 10.4036L15 14.2927L18.8891 10.4036C19.0843 10.2083 19.4009 10.2083 19.5962 10.4036Z" fill="#333333"/>
</g>
<defs>
<clipPath id="clip0">
<rect width="18" height="18" fill="white" transform="translate(6 6)"/>
</clipPath>
</defs>
</svg>
