<svg width="60" height="24" viewBox="0 0 60 24" fill="none" xmlns="http://www.w3.org/2000/svg">
<path d="M28.2045 11.7251V18.76H26.0039V1.38691H31.8403C32.5369 1.37215 33.2296 1.49746 33.8782 1.7556C34.5269 2.01374 35.1187 2.3996 35.6196 2.89092C36.1255 3.35241 36.5281 3.91837 36.8004 4.55078C37.0727 5.18319 37.2084 5.86738 37.1983 6.55738C37.2127 7.25106 37.0792 7.93973 36.8067 8.57616C36.5342 9.2126 36.1292 9.78176 35.6196 10.2446C34.599 11.2316 33.3392 11.7246 31.8403 11.7237H28.2045V11.7251ZM28.2045 3.52579V9.59035H31.895C32.2995 9.60251 32.7022 9.5289 33.0771 9.37423C33.452 9.21956 33.791 8.98723 34.0723 8.6921C34.3522 8.41616 34.5746 8.08612 34.7265 7.72148C34.8784 7.35684 34.9567 6.96501 34.9567 6.56916C34.9567 6.17331 34.8784 5.78148 34.7265 5.41684C34.5746 5.0522 34.3522 4.72216 34.0723 4.44622C33.7945 4.14487 33.4567 3.90685 33.0813 3.74793C32.706 3.58901 32.3016 3.51282 31.895 3.52441H28.2045V3.52579Z" fill="#5F6368"/>
<path d="M42.2678 6.48511C43.8944 6.48511 45.1783 6.92591 46.1196 7.80753C47.0609 8.68914 47.531 9.89789 47.5301 11.4338V18.7598H45.4252V17.1102H45.3295C44.4183 18.4687 43.2064 19.1479 41.6938 19.1479C40.4026 19.1479 39.3223 18.7598 38.453 17.9835C38.0358 17.6272 37.7023 17.181 37.4767 16.6774C37.2511 16.1738 37.1392 15.6256 37.149 15.0725C37.149 13.8425 37.6074 12.8643 38.5241 12.138C39.4408 11.4116 40.6645 11.0475 42.1954 11.0457C43.5021 11.0457 44.5782 11.2882 45.4238 11.7734V11.2633C45.4263 10.8863 45.3461 10.5134 45.1888 10.1718C45.0316 9.8301 44.8014 9.52821 44.5149 9.28797C43.933 8.75551 43.1746 8.46498 42.3908 8.47428C41.1616 8.47428 40.1889 9.00011 39.4727 10.0518L37.5345 8.8139C38.6006 7.26137 40.1784 6.48511 42.2678 6.48511ZM39.4207 15.121C39.4192 15.4051 39.4847 15.6853 39.6117 15.9385C39.7386 16.1917 39.9234 16.4104 40.1506 16.5765C40.6373 16.9648 41.2414 17.1705 41.8605 17.1587C42.7891 17.1572 43.6793 16.7823 44.3358 16.1163C45.0648 15.4205 45.4293 14.604 45.4293 13.6669C44.7432 13.1125 43.7864 12.8352 42.559 12.8352C41.6651 12.8352 40.9197 13.0538 40.3228 13.4909C39.72 13.9345 39.4207 14.4737 39.4207 15.121Z" fill="#5F6368"/>
<path d="M59.6114 6.8728L52.2633 23.9991H49.9916L52.7185 18.0066L47.8867 6.8728H50.2787L53.7709 15.4117H53.8188L57.2154 6.8728H59.6114Z" fill="#5F6368"/>
<path d="M19.3096 10.2071C19.3105 9.52698 19.2538 8.84803 19.1402 8.17773H9.85938V12.0216H15.175C15.0662 12.6355 14.836 13.2208 14.4982 13.742C14.1604 14.2633 13.722 14.7098 13.2095 15.0546V17.5497H16.3819C18.2394 15.8128 19.3096 13.2442 19.3096 10.2071Z" fill="#4285F4"/>
<path d="M9.85924 19.962C12.515 19.962 14.7511 19.0776 16.3818 17.5528L13.2093 15.0576C12.3264 15.6648 11.1892 16.0113 9.85924 16.0113C7.29233 16.0113 5.1136 14.2564 4.3345 11.8916H1.06641V14.463C1.8855 16.116 3.1415 17.5056 4.69417 18.4766C6.24684 19.4476 8.03508 19.9619 9.85924 19.962Z" fill="#34A853"/>
<path d="M4.33554 11.8922C3.92366 10.653 3.92366 9.31105 4.33554 8.07187V5.50049H1.06744C0.37839 6.89105 0.0195312 8.42576 0.0195312 9.98203C0.0195312 11.5383 0.37839 13.073 1.06744 14.4636L4.33554 11.8922Z" fill="#FBBC04"/>
<path d="M9.85924 3.95128C11.2627 3.92803 12.6188 4.4658 13.6344 5.44836L16.4433 2.59975C14.6622 0.903166 12.3026 -0.0282874 9.85924 0.000654816C8.03508 0.000739131 6.24684 0.515005 4.69417 1.48604C3.1415 2.45707 1.8855 3.84665 1.06641 5.49965L4.3345 8.07102C5.1136 5.70619 7.29233 3.95128 9.85924 3.95128Z" fill="#EA4335"/>
</svg>
