<svg width="41" height="18" viewBox="0 0 41 18" fill="none" xmlns="http://www.w3.org/2000/svg">
<path d="M19.4451 8.80219V13.7264H17.9453V1.57102H21.9231C22.8826 1.55164 23.8048 1.92967 24.5035 2.62759C25.2022 3.27704 25.5934 4.21728 25.5748 5.18661C25.5934 6.16563 25.2022 7.10587 24.5035 7.76501C23.8048 8.45324 22.9478 8.80219 21.9324 8.80219H19.4451ZM19.4451 3.06378V7.30943H21.9603C22.5193 7.32882 23.0596 7.09618 23.4415 6.67937C24.2334 5.88452 24.2427 4.57593 23.4788 3.75201L23.4415 3.71323C23.0596 3.28673 22.5193 3.05409 21.9603 3.07348L19.4451 3.06378ZM29.0309 5.13814C30.1395 5.13814 31.0151 5.44833 31.6579 6.059C32.3007 6.67937 32.6174 7.52268 32.6174 8.59863V13.7167H31.1828V12.5632H31.1176C30.4935 13.5131 29.6737 13.9881 28.6397 13.9881C27.764 13.9881 27.0187 13.7167 26.4319 13.1739C25.8543 12.6698 25.5282 11.9234 25.5469 11.1383C25.5469 10.2756 25.8636 9.59704 26.4877 9.0833C27.1119 8.56956 27.9503 8.31753 28.9936 8.31753C29.8879 8.31753 30.6146 8.49201 31.1921 8.82158V8.46293C31.1921 7.9298 30.9686 7.42575 30.5773 7.08649C30.1767 6.71814 29.6644 6.51458 29.1334 6.51458C28.295 6.51458 27.6336 6.88293 27.1398 7.61962L25.817 6.75692C26.5343 5.68096 27.6056 5.13814 29.0309 5.13814ZM27.0933 11.177C27.0933 11.5842 27.2796 11.9622 27.587 12.1948C27.9224 12.4662 28.3322 12.6116 28.7514 12.602C29.3849 12.602 29.9904 12.3402 30.4376 11.875C30.9313 11.3903 31.1828 10.8184 31.1828 10.1592C30.717 9.77152 30.0649 9.57765 29.2265 9.57765C28.621 9.57765 28.1087 9.73275 27.6988 10.0332C27.2982 10.3434 27.0933 10.7215 27.0933 11.177ZM40.8524 5.40955L35.8406 17.3904H34.2942L36.1574 13.2029L32.8596 5.41925H34.4899L36.8654 11.3903H36.9026L39.2222 5.41925L40.8524 5.40955Z" fill="#5F6368"/>
<path d="M13.3805 7.73553C13.3805 7.26056 13.3432 6.78559 13.2687 6.32031H6.94336V9.00534H10.5671C10.4181 9.86804 9.93368 10.6435 9.22569 11.1282V12.873H11.3869C12.6538 11.6613 13.3805 9.86805 13.3805 7.73553Z" fill="#4285F4"/>
<path d="M6.94503 14.5575C8.75226 14.5575 10.28 13.9371 11.3886 12.8709L9.22736 11.1261C8.62184 11.5526 7.84864 11.7949 6.94503 11.7949C5.19369 11.7949 3.7125 10.5639 3.18151 8.91602H0.955078V10.719C2.09158 13.0647 4.41118 14.5575 6.94503 14.5575Z" fill="#34A853"/>
<path d="M3.18044 8.91781C2.90097 8.05511 2.90097 7.11486 3.18044 6.24247V4.44922H0.954C0.480921 5.41948 0.234375 6.49215 0.234375 7.58014C0.234375 8.66813 0.480921 9.7408 0.954 10.7111L3.18044 8.91781Z" fill="#FBBC04"/>
<path d="M6.94503 3.36261C7.90454 3.34322 8.82679 3.72126 9.51614 4.40948L11.4258 2.42236C10.2148 1.23009 8.61253 0.580645 6.94503 0.600031C4.41118 0.600031 2.09158 2.09279 0.955078 4.44825L3.18151 6.2512C3.7125 4.59365 5.19369 3.36261 6.94503 3.36261Z" fill="#EA4335"/>
</svg>
