<svg width="13" height="13" viewBox="0 0 13 13" fill="none" xmlns="http://www.w3.org/2000/svg">
<path d="M12.5205 3.15528C12.3242 2.70065 12.041 2.28867 11.687 1.94239C11.3327 1.59509 10.915 1.31909 10.4565 1.1294C9.98117 0.931934 9.4713 0.830857 8.95654 0.832042C8.23438 0.832042 7.52979 1.0298 6.91748 1.40333C6.771 1.49269 6.63184 1.59083 6.5 1.69776C6.36816 1.59083 6.229 1.49269 6.08252 1.40333C5.47022 1.0298 4.76562 0.832042 4.04346 0.832042C3.52344 0.832042 3.01953 0.931651 2.54346 1.1294C2.0835 1.31983 1.66895 1.59376 1.31299 1.94239C0.958491 2.28828 0.675309 2.70036 0.479492 3.15528C0.275879 3.62843 0.171875 4.13087 0.171875 4.64796C0.171875 5.13575 0.271484 5.64405 0.469238 6.16114C0.634766 6.59327 0.87207 7.04151 1.17529 7.49415C1.65576 8.21046 2.31641 8.95753 3.13672 9.71485C4.49609 10.9702 5.84229 11.8374 5.89941 11.8726L6.24658 12.0952C6.40039 12.1934 6.59815 12.1934 6.75195 12.0952L7.09912 11.8726C7.15625 11.8359 8.50098 10.9702 9.86182 9.71485C10.6821 8.95753 11.3428 8.21046 11.8232 7.49415C12.1265 7.04151 12.3652 6.59327 12.5293 6.16114C12.7271 5.64405 12.8267 5.13575 12.8267 4.64796C12.8281 4.13087 12.7241 3.62843 12.5205 3.15528ZM6.5 10.9365C6.5 10.9365 1.28516 7.59522 1.28516 4.64796C1.28516 3.15528 2.52002 1.94532 4.04346 1.94532C5.11426 1.94532 6.04297 2.54298 6.5 3.41603C6.95703 2.54298 7.88574 1.94532 8.95654 1.94532C10.48 1.94532 11.7148 3.15528 11.7148 4.64796C11.7148 7.59522 6.5 10.9365 6.5 10.9365Z" fill="#738793"/>
<path d="M6.5 10.9365C6.5 10.9365 1.28516 7.59522 1.28516 4.64796C1.28516 3.15528 2.52002 1.94532 4.04346 1.94532C5.11426 1.94532 6.04297 2.54298 6.5 3.41603C6.95703 2.54298 7.88574 1.94532 8.95654 1.94532C10.48 1.94532 11.7148 3.15528 11.7148 4.64796C11.7148 7.59522 6.5 10.9365 6.5 10.9365Z" fill="#738793"/>
</svg>
