<svg width="13" height="13" viewBox="0 0 13 13" fill="none" xmlns="http://www.w3.org/2000/svg">
<path d="M12.5205 3.15455C12.3242 2.69992 12.041 2.28793 11.687 1.94166C11.3327 1.59435 10.915 1.31836 10.4565 1.12867C9.98117 0.931201 9.4713 0.830124 8.95654 0.831309C8.23438 0.831309 7.52979 1.02906 6.91748 1.4026C6.771 1.49195 6.63184 1.5901 6.5 1.69703C6.36816 1.5901 6.229 1.49195 6.08252 1.4026C5.47022 1.02906 4.76562 0.831309 4.04346 0.831309C3.52344 0.831309 3.01953 0.930919 2.54346 1.12867C2.0835 1.3191 1.66895 1.59303 1.31299 1.94166C0.958491 2.28754 0.675309 2.69962 0.479492 3.15455C0.275879 3.6277 0.171875 4.13014 0.171875 4.64723C0.171875 5.13502 0.271484 5.64332 0.469238 6.16041C0.634766 6.59254 0.87207 7.04078 1.17529 7.49342C1.65576 8.20973 2.31641 8.9568 3.13672 9.71412C4.49609 10.9695 5.84229 11.8367 5.89941 11.8718L6.24658 12.0945C6.40039 12.1926 6.59815 12.1926 6.75195 12.0945L7.09912 11.8718C7.15625 11.8352 8.50098 10.9695 9.86182 9.71412C10.6821 8.9568 11.3428 8.20973 11.8232 7.49342C12.1265 7.04078 12.3652 6.59254 12.5293 6.16041C12.7271 5.64332 12.8267 5.13502 12.8267 4.64723C12.8281 4.13014 12.7241 3.6277 12.5205 3.15455ZM6.5 10.9358C6.5 10.9358 1.28516 7.59449 1.28516 4.64723C1.28516 3.15455 2.52002 1.94459 4.04346 1.94459C5.11426 1.94459 6.04297 2.54225 6.5 3.41529C6.95703 2.54225 7.88574 1.94459 8.95654 1.94459C10.48 1.94459 11.7148 3.15455 11.7148 4.64723C11.7148 7.59449 6.5 10.9358 6.5 10.9358Z" fill="#738793"/>
</svg>
