<svg width="40" height="24" viewBox="0 0 40 24" fill="none" xmlns="http://www.w3.org/2000/svg">
<path d="M20.2172 20.8419C22.5703 18.6314 24.0564 15.4736 24.0564 11.9999C24.0564 8.46312 22.5703 5.30527 20.2172 3.15793C18.1119 1.26322 15.3873 0.0632324 12.3531 0.0632324C5.85128 0.0632324 0.587891 5.43158 0.587891 11.9999C0.587891 18.6314 5.85128 23.9998 12.3531 23.9998C15.3873 23.9366 18.1119 22.7366 20.2172 20.8419Z" fill="#3362AB"/>
<path d="M20.2168 20.8429C22.5698 18.6324 24.056 15.4746 24.056 12.0009C24.056 8.46413 22.5698 5.30628 20.2168 3.15894" fill="#3362AB"/>
<path d="M20.2168 20.8429C22.5698 18.6324 24.056 15.4746 24.056 12.0009C24.056 8.46413 22.5698 5.30628 20.2168 3.15894" stroke="#3362AB" stroke-width="0.3097"/>
<path d="M28.082 0C25.0478 0 22.2613 1.19998 20.2179 3.09469C19.7844 3.47363 19.4129 3.91573 19.0413 4.35783H21.3944C21.704 4.73677 22.0136 5.17887 22.2613 5.62097H18.1125C17.8648 5.99992 17.6171 6.44202 17.4314 6.88411H22.9424C23.1282 7.32621 23.314 7.70516 23.4378 8.14726H16.936C16.8121 8.58936 16.6883 8.9683 16.5645 9.4104H23.7474C23.9332 10.2314 23.9951 11.0525 23.9951 11.9367C23.9951 13.263 23.8094 14.5261 23.3759 15.7261H16.8741C16.9979 16.1682 17.1837 16.6103 17.3694 16.9892H22.8805C22.6947 17.4313 22.4471 17.8734 22.1994 18.2524H18.0506C18.2983 18.6945 18.6079 19.1366 18.9175 19.5155H21.2705C20.899 19.9576 20.5275 20.3997 20.094 20.7787C22.1994 22.6734 24.9239 23.8734 27.9581 23.8734C34.46 23.8734 39.6614 18.505 39.6614 11.8735C39.8472 5.36835 34.5838 0 28.082 0Z" fill="#C9191B"/>
<path d="M10.8668 14.9049H9.3807L10.2476 10.2312L8.26611 14.9049H6.96574L6.71806 10.2944L5.85113 14.9049H4.55078L5.66537 8.8418H7.9565L8.08033 12.6312L9.69031 8.8418H12.0433L10.8668 14.9049Z" fill="white"/>
<path d="M27.2136 14.9052C26.842 15.0315 26.4705 15.0947 26.1609 15.0947C25.4178 15.0947 24.9844 14.7157 24.9844 14.021C24.9844 13.8947 24.9844 13.7052 25.0463 13.5789L25.1082 13.0736L25.1701 12.6947L25.8513 8.90527H27.2755L27.0897 10.0421H27.8328L27.647 11.2421H26.9039L26.5324 13.3263C26.5324 13.3894 26.5324 13.5157 26.5324 13.5157C26.5324 13.7684 26.7182 13.8947 27.0278 13.8947C27.2136 13.8947 27.3374 13.8947 27.3993 13.8315L27.2136 14.9052Z" fill="white"/>
<path d="M31.4263 10.0412C31.3024 9.97802 31.3024 9.97803 31.2405 9.97803C31.1786 9.97803 31.1167 9.97803 31.1167 9.97803C31.0547 9.97803 30.9928 9.97803 30.9309 9.97803C30.4355 9.97803 30.1259 10.1675 29.6305 10.7991L29.7544 10.0412H28.5778L27.7109 14.9674H29.1971C29.6924 11.9359 29.9401 11.4306 30.6213 11.4306C30.6832 11.4306 30.7451 11.4306 30.807 11.4306L30.9928 11.4938L31.4263 10.0412Z" fill="white"/>
<path d="M21.3932 11.5588C21.3932 12.1904 21.7648 12.6325 22.5078 12.9483C23.1271 13.2009 23.189 13.2641 23.189 13.5167C23.189 13.8325 22.9413 13.9588 22.3221 13.9588C21.8886 13.9588 21.4552 13.8956 21.0217 13.7693L20.8359 14.9062H20.8979L21.1455 14.9693C21.2075 14.9693 21.3932 15.0325 21.5171 15.0325C21.8886 15.0325 22.1363 15.0956 22.3221 15.0956C23.8701 15.0956 24.6132 14.5904 24.6132 13.4535C24.6132 12.7588 24.3036 12.3799 23.5605 12.0641C22.9413 11.8115 22.8794 11.7483 22.8794 11.4957C22.8794 11.243 23.1271 11.1167 23.6224 11.1167C23.932 11.1167 24.3036 11.1167 24.6751 11.1799L24.8609 10.0431C24.4893 9.9799 23.932 9.91675 23.5605 9.91675C21.9505 9.91675 21.3932 10.6746 21.3932 11.5588Z" fill="white"/>
<path d="M14.5836 12.7588C14.3978 12.7588 14.3359 12.7588 14.274 12.7588C13.469 12.7588 13.0355 13.0114 13.0355 13.5167C13.0355 13.8325 13.2213 14.022 13.5309 14.022C14.0882 13.9588 14.5217 13.4535 14.5836 12.7588ZM15.6363 14.9062H14.3978L14.4598 14.4009C14.0882 14.7798 13.5928 14.9693 12.9117 14.9693C12.1067 14.9693 11.6113 14.4009 11.6113 13.643C11.6113 12.443 12.5402 11.7483 14.1501 11.7483C14.3359 11.7483 14.5217 11.7483 14.7694 11.8115C14.8313 11.622 14.8313 11.5588 14.8313 11.4957C14.8313 11.1799 14.5836 11.0536 13.9024 11.0536C13.469 11.0536 13.0355 11.1167 12.7259 11.1799L12.5402 11.2431L12.4163 11.3062L12.6021 10.1694C13.3452 9.9799 13.7786 9.91675 14.3359 9.91675C15.5743 9.91675 16.2555 10.422 16.2555 11.3694C16.2555 11.622 16.2555 11.8115 16.1316 12.3167L15.822 14.0851L15.7601 14.4009L15.6982 14.6535V14.843L15.6363 14.9062Z" fill="white"/>
<path d="M19.6594 11.8743C19.6594 11.748 19.6594 11.6848 19.6594 11.6217C19.6594 11.2427 19.4117 10.9901 18.9783 10.9901C18.4829 10.9901 18.1733 11.3059 18.0494 11.8743H19.6594ZM20.4025 14.8427C19.9071 14.969 19.4117 15.0322 18.9163 15.0322C17.3064 15.0322 16.4395 14.2743 16.4395 12.8217C16.4395 11.1164 17.4921 9.85327 18.9783 9.85327C20.1548 9.85327 20.9598 10.548 20.9598 11.6217C20.9598 12.0006 20.8979 12.3164 20.774 12.8217H17.8637C17.8637 12.8848 17.8637 12.948 17.8637 12.948C17.8637 13.5164 18.2971 13.8322 19.164 13.8322C19.6594 13.8322 20.1548 13.7059 20.7121 13.5164L20.4025 14.8427Z" fill="white"/>
<path d="M34.4587 12.0641C34.4587 11.5588 34.2729 11.0536 33.6537 11.0536C32.9106 11.0536 32.4772 11.9378 32.4772 12.7588C32.4772 13.4535 32.7868 13.8956 33.3441 13.8956C33.6537 13.8956 34.3348 13.4535 34.4587 12.6957C34.4587 12.5062 34.4587 12.2536 34.4587 12.0641ZM36.0067 12.6957C35.759 14.3377 34.6444 15.0956 33.1583 15.0956C31.4864 15.0956 30.8672 14.0851 30.8672 12.822C30.8672 11.0536 31.9818 9.91675 33.7156 9.91675C35.2637 9.91675 36.0067 10.8641 36.0067 12.1272C36.0687 12.3799 36.0687 12.3799 36.0067 12.6957Z" fill="white"/>
</svg>
