<svg width="40" height="24" viewBox="0 0 40 24" fill="none" xmlns="http://www.w3.org/2000/svg">
<path d="M39.1478 11.9998C39.1478 18.5844 33.9174 23.9997 27.4245 23.9997C20.9917 23.9997 15.7012 18.5844 15.7012 11.9998C15.7012 5.41531 20.9316 0 27.3644 0C33.9174 0 39.1478 5.41531 39.1478 11.9998Z" fill="#F9B50B"/>
<path d="M23.4568 12.0614C23.4568 11.1999 23.3366 10.3383 23.2163 9.53834H16.002C16.0621 9.10757 16.1823 8.73835 16.3026 8.24604H22.7354C22.6151 7.81528 22.4348 7.38452 22.2544 6.95375H16.7835C16.9639 6.52299 17.2044 6.15376 17.4448 5.66146H21.5931C21.3526 5.2307 21.052 4.79994 20.6913 4.36917H18.4068C18.7675 3.93841 19.1282 3.56918 19.6091 3.13842C17.5651 1.16922 14.7996 0 11.7335 0C5.36083 0.184613 0.0703125 5.41531 0.0703125 11.9998C0.0703125 18.5844 5.30071 23.9997 11.7936 23.9997C14.8597 23.9997 17.5651 22.7689 19.6693 20.8613C20.0901 20.492 20.4508 20.0613 20.8717 19.569H18.4669C18.1663 19.1997 17.8657 18.769 17.6252 18.3382H21.7133C21.9538 17.969 22.1943 17.5382 22.3746 17.0459H16.9038C16.7234 16.6767 16.5431 16.2459 16.4228 15.7536H22.8556C23.2163 14.646 23.4568 13.4152 23.4568 12.0614Z" fill="#C8191C"/>
<path d="M15.9423 15.077L16.1226 13.9693C16.0625 13.9693 15.9423 14.0308 15.822 14.0308C15.4012 14.0308 15.3411 13.7847 15.4012 13.6616L15.7619 11.4463H16.4232L16.6036 10.2155H16.0024L16.1226 9.47705H14.8601C14.8601 9.47705 14.1387 13.6616 14.1387 14.1539C14.1387 14.8924 14.5595 15.2616 15.1607 15.2616C15.5214 15.2616 15.822 15.1385 15.9423 15.077Z" fill="white"/>
<path d="M16.3613 13.0451C16.3613 14.8297 17.5637 15.2605 18.5256 15.2605C19.4274 15.2605 19.8483 15.0758 19.8483 15.0758L20.0887 13.8451C20.0887 13.8451 19.4274 14.1528 18.7661 14.1528C17.3834 14.1528 17.6238 13.1066 17.6238 13.1066H20.1489C20.1489 13.1066 20.3292 12.3066 20.3292 11.9374C20.3292 11.1374 19.9084 10.0913 18.5256 10.0913C17.3232 10.0298 16.3613 11.4451 16.3613 13.0451ZM18.5256 11.199C19.1869 11.199 19.0667 11.999 19.0667 12.0605H17.684C17.7441 11.999 17.8643 11.199 18.5256 11.199Z" fill="white"/>
<path d="M26.4014 15.0764L26.6419 13.661C26.6419 13.661 26.0407 13.9687 25.5597 13.9687C24.7181 13.9687 24.2972 13.2918 24.2972 12.4918C24.2972 10.9534 25.0187 10.1534 25.9205 10.1534C26.5217 10.1534 27.0627 10.5226 27.0627 10.5226L27.2431 9.16877C27.2431 9.16877 26.5217 8.86108 25.8002 8.86108C24.3574 8.86108 22.9746 10.1534 22.9746 12.5533C22.9746 14.1533 23.696 15.1995 25.199 15.1995C25.7401 15.261 26.4014 15.0764 26.4014 15.0764Z" fill="white"/>
<path d="M9.14935 10.0298C8.30768 10.0298 7.64636 10.2759 7.64636 10.2759L7.466 11.3836C7.466 11.3836 8.00708 11.1375 8.84875 11.1375C9.26959 11.1375 9.63031 11.199 9.63031 11.5682C9.63031 11.8144 9.57019 11.8759 9.57019 11.8759H9.02911C7.94696 11.8759 6.80469 12.3067 6.80469 13.7836C6.80469 14.9528 7.52612 15.1989 8.00708 15.1989C8.84875 15.1989 9.26959 14.6451 9.32971 14.6451L9.26959 15.1374H10.2916L10.7726 11.6298C10.7726 10.0913 9.57019 10.0298 9.14935 10.0298ZM9.38983 12.8605C9.38983 13.0451 9.26959 14.0913 8.54815 14.0913C8.18744 14.0913 8.0672 13.7836 8.0672 13.599C8.0672 13.2913 8.24756 12.8605 9.20947 12.8605C9.32971 12.8605 9.38983 12.8605 9.38983 12.8605Z" fill="white"/>
<path d="M11.9737 15.1992C12.2743 15.1992 13.8374 15.2607 13.8374 13.5377C13.8374 11.9377 12.3344 12.2454 12.3344 11.63C12.3344 11.3223 12.5749 11.1993 12.9957 11.1993C13.1761 11.1993 13.8374 11.2608 13.8374 11.2608L14.0178 10.0916C14.0178 10.0916 13.5969 9.96851 12.8154 9.96851C11.9136 9.96851 10.9517 10.3377 10.9517 11.63C10.9517 13.1069 12.5148 12.9839 12.5148 13.5377C12.5148 13.9069 12.0939 13.9685 11.7933 13.9685C11.2523 13.9685 10.6511 13.7838 10.6511 13.7838L10.4707 14.9531C10.5909 15.0761 10.9517 15.1992 11.9737 15.1992Z" fill="white"/>
<path d="M36.7424 9.04541L36.5019 10.7685C36.5019 10.7685 36.0209 10.1531 35.2995 10.1531C34.1572 10.1531 33.1953 11.5685 33.1953 13.23C33.1953 14.2761 33.6763 15.3223 34.7584 15.3223C35.4799 15.3223 35.9608 14.83 35.9608 14.83L35.9007 15.2607H37.1632L38.065 9.16849L36.7424 9.04541ZM36.1412 12.3684C36.1412 13.0454 35.8406 13.9684 35.1191 13.9684C34.6983 13.9684 34.4578 13.5992 34.4578 12.9223C34.4578 11.8761 34.8787 11.2608 35.4799 11.2608C35.9007 11.3223 36.1412 11.63 36.1412 12.3684Z" fill="white"/>
<path d="M2.35473 15.1376L3.07617 10.5839L3.19641 15.1376H4.03808L5.66131 10.5839L4.99999 15.1376H6.32262L7.34465 9.04541H5.30059L4.03808 12.7992L3.97796 9.04541H2.17438L1.15234 15.1376H2.35473Z" fill="white"/>
<path d="M21.5937 15.1374C21.9544 13.0451 22.0145 11.322 22.9163 11.6297C23.0366 10.8297 23.2169 10.4605 23.3372 10.1528H23.0967C22.5556 10.1528 22.0746 10.8913 22.0746 10.8913L22.1949 10.2144H20.9925L20.2109 15.1374H21.5937Z" fill="white"/>
<path d="M29.288 10.0298C28.4463 10.0298 27.785 10.2759 27.785 10.2759L27.6047 11.3836C27.6047 11.3836 28.1457 11.1375 28.9874 11.1375C29.4083 11.1375 29.769 11.199 29.769 11.5682C29.769 11.8144 29.7089 11.8759 29.7089 11.8759H29.1678C28.0856 11.8759 26.9434 12.3067 26.9434 13.7836C26.9434 14.9528 27.6648 15.1989 28.1458 15.1989C28.9874 15.1989 29.4083 14.6451 29.4684 14.6451L29.4083 15.1374H30.5505L31.0315 11.6298C31.0315 10.0913 29.7089 10.0298 29.288 10.0298ZM29.5886 12.8605C29.5886 13.0451 29.4684 14.0913 28.7469 14.0913C28.3862 14.0913 28.266 13.7836 28.266 13.599C28.266 13.2913 28.4463 12.8605 29.4083 12.8605C29.5285 12.8605 29.5285 12.8605 29.5886 12.8605Z" fill="white"/>
<path d="M31.9941 15.1374C32.3548 13.0451 32.4149 11.322 33.3167 11.6297C33.4369 10.8297 33.6173 10.4605 33.7375 10.1528H33.4971C32.956 10.1528 32.475 10.8913 32.475 10.8913L32.5953 10.2144H31.3929L30.6113 15.1374H31.9941Z" fill="white"/>
</svg>
