<svg width="23" height="19" viewBox="0 0 23 19" fill="none" xmlns="http://www.w3.org/2000/svg">
<path d="M4.13299 18.8017V17.6032C4.13975 17.5024 4.12577 17.4012 4.092 17.3065C4.05822 17.2117 4.00542 17.1256 3.93711 17.0537C3.8688 16.9819 3.78656 16.926 3.69587 16.8899C3.60518 16.8537 3.50813 16.8381 3.41119 16.8441C3.28431 16.8355 3.15753 16.8625 3.04408 16.9222C2.93063 16.9819 2.83465 17.0722 2.76615 17.1837C2.70372 17.0755 2.61443 16.9869 2.50767 16.9272C2.4009 16.8674 2.28063 16.8387 2.15951 16.8441C2.05393 16.8386 1.9488 16.8618 1.85452 16.9116C1.76024 16.9614 1.68008 17.0359 1.62198 17.1278V16.8921H1.22266V18.8017H1.6258V17.743C1.61708 17.6777 1.62238 17.6111 1.64131 17.5482C1.66024 17.4852 1.69233 17.4274 1.73528 17.3789C1.77823 17.3304 1.83097 17.2924 1.88971 17.2676C1.94845 17.2429 2.01174 17.2319 2.07503 17.2356C2.33995 17.2356 2.47435 17.4154 2.47435 17.739V18.8017H2.8775V17.743C2.86944 17.6778 2.87519 17.6115 2.89436 17.5489C2.91353 17.4862 2.94565 17.4287 2.98846 17.3804C3.03128 17.332 3.08374 17.294 3.14218 17.269C3.20062 17.244 3.2636 17.2326 3.32672 17.2356C3.59931 17.2356 3.72985 17.4154 3.72985 17.739V18.8017H4.13299ZM10.0996 16.8921H9.44687V16.3128H9.04373V16.8921H8.67128V17.2716H9.04373V18.1425C9.04373 18.586 9.20883 18.8497 9.68107 18.8497C9.8575 18.8502 10.0305 18.799 10.1802 18.7018L10.065 18.3463C9.95795 18.4127 9.83642 18.4499 9.71179 18.4541C9.51213 18.4541 9.44687 18.3263 9.44687 18.1345V17.2716H10.0996V16.8921ZM13.5052 16.8441C13.4079 16.8411 13.3115 16.8655 13.2264 16.9147C13.1412 16.964 13.0704 17.0362 13.0215 17.1238V16.8921H12.626V18.8017H13.0253V17.731C13.0253 17.4154 13.1558 17.2396 13.4169 17.2396C13.5023 17.2384 13.5871 17.2547 13.6665 17.2876L13.7893 16.896C13.6981 16.8621 13.6021 16.8445 13.5052 16.8441ZM8.35646 17.0439C8.13044 16.904 7.87056 16.8347 7.60775 16.8441C7.14317 16.8441 6.8437 17.0758 6.8437 17.4553C6.8437 17.767 7.06638 17.9588 7.47719 18.0187L7.66533 18.0466C7.88417 18.0785 7.98786 18.1385 7.98786 18.2464C7.98786 18.3942 7.84193 18.4781 7.56935 18.4781C7.35008 18.4847 7.13505 18.4143 6.95886 18.2783L6.77074 18.6019C7.00332 18.771 7.28193 18.8578 7.56551 18.8497C8.09536 18.8497 8.4025 18.59 8.4025 18.2264C8.4025 17.8908 8.16064 17.715 7.76133 17.6551L7.57321 17.6271C7.40041 17.6032 7.2622 17.5672 7.2622 17.4394C7.2622 17.2996 7.39271 17.2156 7.61159 17.2156C7.81256 17.2188 8.00945 17.2752 8.18368 17.3794L8.35646 17.0439ZM19.0533 16.8441C18.9559 16.8411 18.8596 16.8655 18.7745 16.9147C18.6893 16.964 18.6185 17.0362 18.5695 17.1238V16.8921H18.174V18.8017H18.5733V17.731C18.5733 17.4154 18.7039 17.2396 18.965 17.2396C19.0504 17.2384 19.1352 17.2547 19.2146 17.2876L19.3374 16.896C19.2462 16.8621 19.1501 16.8445 19.0533 16.8441ZM13.9083 17.8468C13.903 17.9814 13.9249 18.1156 13.9724 18.2408C14.0199 18.366 14.0921 18.4795 14.1843 18.574C14.2766 18.6685 14.3868 18.7418 14.5079 18.7893C14.629 18.8367 14.7583 18.8573 14.8874 18.8497C15.1272 18.8622 15.3627 18.781 15.5478 18.6219L15.3559 18.2863C15.2178 18.3958 15.0495 18.4561 14.8759 18.4581C14.7263 18.4487 14.5857 18.3802 14.483 18.2666C14.3803 18.153 14.323 18.0029 14.323 17.8469C14.323 17.6909 14.3803 17.5408 14.483 17.4272C14.5857 17.3136 14.7263 17.2451 14.8759 17.2356C15.0495 17.2377 15.2178 17.2979 15.3559 17.4074L15.5478 17.0718C15.3627 16.9128 15.1272 16.8316 14.8874 16.8441C14.7583 16.8365 14.629 16.857 14.5079 16.9045C14.3868 16.952 14.2766 17.0253 14.1844 17.1197C14.0922 17.2142 14.0199 17.3277 13.9724 17.4529C13.9249 17.5781 13.903 17.7123 13.9083 17.8468ZM17.648 17.8468V16.8921H17.2487V17.1238C17.1806 17.0324 17.0924 16.9593 16.9915 16.9106C16.8906 16.862 16.78 16.8392 16.6689 16.8441C16.4215 16.8567 16.1882 16.9679 16.0174 17.1546C15.8466 17.3412 15.7513 17.5891 15.7513 17.8469C15.7513 18.1047 15.8466 18.3525 16.0174 18.5392C16.1882 18.7259 16.4215 18.8371 16.6689 18.8497C16.78 18.8546 16.8906 18.8318 16.9915 18.7831C17.0924 18.7345 17.1806 18.6614 17.2487 18.57V18.8017H17.648V17.8468ZM16.1621 17.8468C16.1683 17.7342 16.2061 17.6258 16.2707 17.5352C16.3354 17.4446 16.4241 17.3756 16.526 17.3368C16.6279 17.298 16.7384 17.2911 16.844 17.3169C16.9496 17.3428 17.0457 17.4002 17.1203 17.4821C17.1949 17.564 17.2449 17.6669 17.264 17.778C17.2831 17.8891 17.2705 18.0036 17.2278 18.1074C17.1852 18.2111 17.1142 18.2996 17.0238 18.362C16.9334 18.4243 16.8274 18.4577 16.7189 18.4581C16.6429 18.4592 16.5674 18.4439 16.4974 18.4131C16.4273 18.3823 16.3641 18.3368 16.3118 18.2794C16.2595 18.2219 16.2192 18.1539 16.1935 18.0794C16.1677 18.005 16.157 17.9258 16.1621 17.8468ZM11.3436 16.8441C11.0946 16.8577 10.8603 16.9712 10.69 17.1607C10.5196 17.3501 10.4264 17.6009 10.4299 17.8603C10.4333 18.1198 10.5332 18.3677 10.7086 18.5522C10.884 18.7367 11.1212 18.8433 11.3705 18.8497C11.6444 18.8597 11.9123 18.7644 12.123 18.582L11.9272 18.2744C11.7756 18.4008 11.5878 18.4711 11.3935 18.4741C11.2615 18.4857 11.1305 18.4433 11.028 18.3561C10.9255 18.2688 10.8597 18.1435 10.8444 18.0066H12.2075C12.2113 17.9547 12.2151 17.9028 12.2151 17.8468C12.2113 17.2516 11.8581 16.8441 11.3436 16.8441ZM11.3359 17.2156C11.4565 17.2132 11.5731 17.2606 11.6602 17.3475C11.7473 17.4343 11.7977 17.5536 11.8005 17.6791H10.8483C10.8553 17.5509 10.9102 17.4306 11.0014 17.344C11.0925 17.2574 11.2126 17.2113 11.3359 17.2156ZM21.3531 17.8468V16.125H20.9538V17.1238C20.8857 17.0324 20.7975 16.9593 20.6966 16.9106C20.5957 16.862 20.4851 16.8392 20.3741 16.8441C20.1266 16.8567 19.8934 16.9679 19.7225 17.1546C19.5517 17.3412 19.4564 17.5891 19.4564 17.8469C19.4564 18.1047 19.5517 18.3526 19.7225 18.5392C19.8934 18.7259 20.1266 18.8371 20.3741 18.8497C20.4852 18.8546 20.5957 18.8318 20.6966 18.7831C20.7975 18.7345 20.8857 18.6614 20.9538 18.57V18.8017H21.3531V17.8468ZM22.0188 18.525C22.0436 18.5248 22.0681 18.5299 22.091 18.5399C22.113 18.5494 22.133 18.5632 22.15 18.5806C22.1669 18.5979 22.1804 18.6184 22.1898 18.641C22.1994 18.6643 22.2043 18.6894 22.2043 18.7147C22.2043 18.74 22.1994 18.765 22.1898 18.7883C22.1803 18.8108 22.1669 18.8313 22.15 18.8485C22.133 18.8659 22.113 18.8798 22.091 18.8895C22.0682 18.8996 22.0436 18.9048 22.0188 18.9046C21.9822 18.905 21.9464 18.8942 21.9158 18.8735C21.8851 18.8528 21.861 18.8232 21.8464 18.7883C21.8369 18.765 21.8319 18.74 21.8319 18.7147C21.8319 18.6894 21.8369 18.6643 21.8464 18.641C21.8558 18.6184 21.8692 18.5979 21.886 18.5806C21.903 18.5631 21.9231 18.5493 21.9453 18.5399C21.9686 18.5298 21.9936 18.5248 22.0188 18.525ZM22.0188 18.8627C22.0377 18.8629 22.0564 18.8589 22.0738 18.8511C22.0905 18.8436 22.1056 18.8328 22.1185 18.8195C22.145 18.7916 22.1599 18.754 22.1599 18.7148C22.1599 18.6756 22.145 18.6379 22.1185 18.6101C22.1056 18.5967 22.0905 18.5861 22.0738 18.5787C22.0564 18.571 22.0377 18.5671 22.0188 18.5673C21.9995 18.5672 21.9804 18.571 21.9627 18.5787C21.9457 18.586 21.9303 18.5966 21.9173 18.6101C21.8908 18.6379 21.8759 18.6756 21.8759 18.7148C21.8759 18.754 21.8908 18.7916 21.9173 18.8195C21.9303 18.8329 21.9457 18.8437 21.9627 18.8511C21.9804 18.8589 21.9995 18.8629 22.0188 18.8627ZM22.0295 18.6259C22.0475 18.6247 22.0653 18.63 22.0798 18.641C22.0856 18.646 22.0902 18.6523 22.0933 18.6595C22.0964 18.6666 22.0978 18.6744 22.0975 18.6822C22.0977 18.6889 22.0965 18.6956 22.0941 18.7018C22.0917 18.708 22.088 18.7136 22.0834 18.7182C22.0723 18.7285 22.0582 18.7347 22.0434 18.7357L22.0988 18.8022H22.0555L22.004 18.7362H21.9875V18.8022H21.9513V18.6259H22.0295ZM21.9875 18.659V18.706H22.0291C22.0371 18.7064 22.045 18.7043 22.0519 18.7001C22.0547 18.6982 22.0569 18.6955 22.0584 18.6923C22.0599 18.6892 22.0606 18.6857 22.0604 18.6822C22.0605 18.6788 22.0599 18.6754 22.0584 18.6723C22.0569 18.6692 22.0547 18.6666 22.0519 18.6647C22.045 18.6606 22.0371 18.6585 22.0291 18.659H21.9875ZM19.8673 17.8468C19.8735 17.7342 19.9112 17.6258 19.9759 17.5352C20.0406 17.4446 20.1293 17.3756 20.2312 17.3369C20.333 17.2981 20.4436 17.2912 20.5492 17.317C20.6548 17.3428 20.7508 17.4002 20.8254 17.4822C20.9 17.5641 20.95 17.667 20.9691 17.7781C20.9882 17.8892 20.9756 18.0037 20.9329 18.1074C20.8902 18.2112 20.8193 18.2997 20.7289 18.362C20.6384 18.4243 20.5324 18.4577 20.424 18.4581C20.3479 18.4592 20.2725 18.4439 20.2025 18.4131C20.1324 18.3823 20.0693 18.3368 20.017 18.2794C19.9646 18.2219 19.9243 18.1538 19.8986 18.0794C19.8728 18.005 19.8622 17.9258 19.8673 17.8468ZM6.38295 17.8468V16.8921H5.98363V17.1238C5.91547 17.0324 5.82727 16.9593 5.72641 16.9106C5.62554 16.862 5.51494 16.8392 5.40386 16.8441C5.15644 16.8567 4.92316 16.9679 4.75234 17.1546C4.58152 17.3412 4.48624 17.5891 4.48624 17.8469C4.48624 18.1047 4.58152 18.3525 4.75234 18.5392C4.92316 18.7259 5.15644 18.8371 5.40386 18.8497C5.51494 18.8546 5.62554 18.8318 5.72641 18.7831C5.82727 18.7345 5.91547 18.6614 5.98363 18.57V18.8017H6.38295V17.8468ZM4.89708 17.8468C4.90328 17.7342 4.94104 17.6258 5.00571 17.5352C5.07037 17.4446 5.15911 17.3756 5.26098 17.3369C5.36285 17.2981 5.4734 17.2912 5.57899 17.317C5.68459 17.3428 5.78061 17.4002 5.85522 17.4822C5.92983 17.5641 5.97977 17.667 5.99888 17.7781C6.01798 17.8892 6.00542 18.0037 5.96273 18.1074C5.92005 18.2112 5.84912 18.2997 5.75868 18.362C5.66824 18.4243 5.56226 18.4577 5.45379 18.4581C5.37776 18.4592 5.30234 18.4439 5.23228 18.4131C5.16223 18.3823 5.09907 18.3368 5.04676 18.2794C4.99446 18.2219 4.95416 18.1538 4.9284 18.0794C4.90264 18.005 4.89197 17.9258 4.89708 17.8468Z" fill="#231F20"/>
<path d="M14.2648 2.33789H8.2168V13.647H14.2648V2.33789Z" fill="#FF5F00"/>
<path d="M8.60599 7.99301C8.60503 6.90387 8.84223 5.82878 9.29961 4.84912C9.757 3.86946 10.4226 3.01091 11.246 2.33848C10.2263 1.50451 9.00173 0.985877 7.71218 0.841858C6.42263 0.697838 5.12016 0.934247 3.95363 1.52406C2.7871 2.11388 1.80358 3.0333 1.11549 4.17724C0.427399 5.32118 0.0625 6.64348 0.0625 7.99301C0.0625 9.34254 0.427399 10.6649 1.11549 11.8088C1.80358 12.9527 2.7871 13.8722 3.95363 14.462C5.12016 15.0518 6.42263 15.2882 7.71218 15.1442C9.00173 15.0002 10.2263 14.4815 11.246 13.6475C10.4226 12.9751 9.757 12.1166 9.29962 11.1369C8.84224 10.1573 8.60504 9.08216 8.60599 7.99301Z" fill="#EB001B"/>
<path d="M22.4234 7.99301C22.4234 9.34252 22.0586 10.6648 21.3705 11.8088C20.6825 12.9527 19.699 13.8721 18.5325 14.462C17.366 15.0518 16.0635 15.2882 14.774 15.1442C13.4844 15.0002 12.2599 14.4815 11.2402 13.6475C12.0629 12.9744 12.728 12.1158 13.1853 11.1362C13.6426 10.1567 13.8802 9.08198 13.8802 7.99301C13.8802 6.90404 13.6426 5.82929 13.1853 4.84978C12.728 3.87028 12.0629 3.01159 11.2402 2.33848C12.2599 1.50451 13.4844 0.985874 14.774 0.841856C16.0635 0.697839 17.366 0.934252 18.5325 1.52407C19.699 2.11389 20.6825 3.03332 21.3705 4.17726C22.0586 5.3212 22.4234 6.6435 22.4234 7.99301Z" fill="#F79E1B"/>
<path d="M21.7735 12.4491V12.2176H21.8633V12.1704H21.6348V12.2176H21.7245V12.4491H21.7735ZM22.2172 12.4491V12.1699H22.1471L22.0666 12.3619L21.986 12.1699H21.9159V12.4491H21.9654V12.2385L22.0409 12.4201H22.0922L22.1677 12.238V12.4491H22.2172Z" fill="#F79E1B"/>
</svg>
