<svg width="54" height="16" viewBox="0 0 54 16" fill="none" xmlns="http://www.w3.org/2000/svg">
<path d="M48.2034 -0.000244141H38.0469C38.6385 3.369 41.8926 6.54007 45.4424 6.54007H53.5282C53.6268 6.24278 53.6268 5.7473 53.6268 5.45001C53.6268 2.47714 51.1616 -0.000244141 48.2034 -0.000244141Z" fill="url(#paint0_linear)"/>
<path d="M38.9355 7.1333V15.3582H43.8659V10.998H48.2046C50.5712 10.998 52.642 9.3134 53.3322 7.1333H38.9355Z" fill="#4FAD50"/>
<path d="M21.5801 -0.000244141V15.2605H25.9188C25.9188 15.2605 27.0035 15.2605 27.5951 14.1704C30.5533 8.32378 31.4408 6.54007 31.4408 6.54007H32.0324V15.2605H36.9628V-0.000244141H32.6241C32.6241 -0.000244141 31.5394 0.0988575 30.9477 1.08981C28.4826 6.14369 27.1021 8.72017 27.1021 8.72017H26.5104V-0.000244141H21.5801Z" fill="#4FAD50"/>
<path d="M0.873047 15.3581V0.0974121H5.80342C5.80342 0.0974121 7.18393 0.097409 7.97279 2.27751C9.94494 8.02504 10.1422 8.81781 10.1422 8.81781C10.1422 8.81781 10.5366 7.43046 12.3115 2.27751C13.1004 0.097409 14.4809 0.0974121 14.4809 0.0974121H19.4113V15.3581H14.4809V7.13319H13.8892L11.1282 15.3581H8.95886L6.19787 7.13319H5.60622V15.3581H0.873047Z" fill="#4FAD50"/>
<defs>
<linearGradient id="paint0_linear" x1="38.0293" y1="3.31678" x2="53.5919" y2="3.31678" gradientUnits="userSpaceOnUse">
<stop stop-color="#27B1E6"/>
<stop offset="1" stop-color="#148ACA"/>
</linearGradient>
</defs>
</svg>
