<svg width="8" height="4" viewBox="0 0 8 4" fill="none" xmlns="http://www.w3.org/2000/svg">
<path fill-rule="evenodd" clip-rule="evenodd" d="M0.164193 0.838849L3.60396 3.85609C3.6612 3.90629 3.72776 3.94336 3.79876 3.9673C3.86341 3.9891 3.93174 4 4.00007 4C4.06839 4 4.13669 3.98911 4.20132 3.96733C4.27228 3.94342 4.33881 3.90636 4.39607 3.85616L7.83589 0.838927C8.0547 0.646994 8.0547 0.335824 7.83589 0.143969C7.61716 -0.0478862 7.26244 -0.0478862 7.04362 0.143969L4.00006 2.81368L0.95639 0.143891C0.737679 -0.0479641 0.382921 -0.0479641 0.164193 0.143891C-0.0547314 0.33573 -0.0547314 0.646916 0.164193 0.838849ZM7.17647 0.0871465L7.17647 0.0871516L7.17647 0.0871465ZM0.296946 0.895645L0.296965 0.895662L0.296946 0.895645Z" fill="#333333"/>
</svg>
