<svg width="30" height="30" viewBox="0 0 30 30" fill="none" xmlns="http://www.w3.org/2000/svg">
<path fill-rule="evenodd" clip-rule="evenodd" d="M15 29C22.732 29 29 22.732 29 15C29 7.26801 22.732 1 15 1C7.26801 1 1 7.26801 1 15C1 22.732 7.26801 29 15 29ZM15 30C23.2843 30 30 23.2843 30 15C30 6.71573 23.2843 0 15 0C6.71573 0 0 6.71573 0 15C0 23.2843 6.71573 30 15 30Z" fill="#333333"/>
<path fill-rule="evenodd" clip-rule="evenodd" d="M15 8.5C15.2761 8.5 15.5 8.72386 15.5 9V14.5H21C21.2761 14.5 21.5 14.7239 21.5 15C21.5 15.2761 21.2761 15.5 21 15.5H15.5V21C15.5 21.2761 15.2761 21.5 15 21.5C14.7239 21.5 14.5 21.2761 14.5 21V15.5H9C8.72386 15.5 8.5 15.2761 8.5 15C8.5 14.7239 8.72386 14.5 9 14.5H14.5V9C14.5 8.72386 14.7239 8.5 15 8.5Z" fill="#333333"/>
</svg>
