<svg width="100" height="36" viewBox="0 0 100 36" fill="none" xmlns="http://www.w3.org/2000/svg">
<path fill-rule="evenodd" clip-rule="evenodd" d="M17.2032 0.0935366C15.9172 0.330416 15.2005 0.576277 14.6104 0.982676C14.2904 1.20304 13.9868 1.3833 13.9358 1.3833C13.7504 1.3833 12.7689 2.54541 12.3684 3.23888C11.9378 3.98449 11.6809 4.14037 11.6595 3.6687C11.6526 3.51442 11.6203 2.79127 11.5879 2.06187C11.5555 1.33246 11.486 0.664966 11.4332 0.578362C11.3735 0.48037 9.23407 0.42103 5.7536 0.42103C0.795081 0.42103 0.159009 0.449577 0.0733561 0.676032C-0.0979489 1.1291 0.131353 1.22292 1.4095 1.22292H2.66442V18.1108C2.66442 31.032 2.61986 35.0439 2.47479 35.1911C2.36164 35.306 1.81548 35.3836 1.11999 35.3836C0.0953225 35.3836 -0.0388457 35.4174 0.00793127 35.6643C0.0580269 35.9276 0.611924 35.9449 8.98564 35.9449C17.3594 35.9449 17.9133 35.9276 17.9634 35.6643C18.0125 35.4048 17.7846 35.3836 14.9326 35.3836C13.0979 35.3836 11.8103 35.3203 11.7535 35.2271C11.6434 35.0462 11.642 22.5305 11.7521 22.4187C11.7924 22.3778 12.1813 22.6824 12.6166 23.0954C13.8942 24.3085 14.5393 24.5183 17.0452 24.5359C19.5105 24.5532 20.6004 24.351 22.1812 23.5826C24.7528 22.3326 26.2919 19.9691 27.0288 16.1381C27.3309 14.5672 27.2707 9.82163 26.9259 8.03902C26.5953 6.32938 25.7471 4.13973 25.0646 3.23423C24.3204 2.2471 23.4824 1.3833 23.2684 1.3833C23.163 1.3833 23.053 1.32925 23.024 1.26302C22.9589 1.11403 21.5843 0.495606 20.8379 0.279416C20.0288 0.0451023 18.0232 -0.0573798 17.2032 0.0935366ZM46.5179 0.0980272C45.5585 0.225849 44.7198 0.496408 43.8015 0.974337C43.0878 1.34577 41.7706 2.86103 41.3473 3.79748C40.758 5.1012 40.7005 4.94836 40.681 2.02482L40.6708 0.501219H34.9026C29.2399 0.501219 29.1345 0.507153 29.1345 0.821977C29.1345 1.11114 29.2553 1.14739 30.3593 1.18956L31.584 1.2364V12.2958V23.3552H30.3198C29.1846 23.3552 29.0555 23.3861 29.0555 23.6588C29.0555 23.8257 29.1508 23.9994 29.2671 24.0448C29.3836 24.0902 32.3245 24.1358 35.8028 24.1462C41.367 24.1629 42.1515 24.135 42.3323 23.9138C42.6197 23.5624 42.3803 23.3845 41.5399 23.3252L40.8288 23.275L40.7404 20.9495C40.5751 16.5903 40.7275 7.70543 40.9871 6.56899C41.4318 4.62343 42.4203 2.88782 43.3345 2.44742C44.0085 2.12297 44.685 2.1119 45.1163 2.41839C45.7653 2.8798 45.824 3.90349 45.7743 13.8928L45.7277 23.275L45.0476 23.3247C44.333 23.377 43.9927 23.7417 44.4009 24.0179C44.6125 24.1611 54.7944 24.1699 55.9929 24.028C56.4073 23.9789 56.5528 23.8851 56.5528 23.6668C56.5528 23.4242 56.4058 23.3634 55.7232 23.3234L54.8935 23.275L54.8518 15.8976C54.8287 11.7951 54.8775 8.02491 54.9619 7.4044C55.4166 4.06243 57.3313 1.67391 59.0658 2.28511C59.3688 2.39176 59.5472 2.63939 59.7466 3.22958C59.9914 3.95417 60.0138 4.93649 59.9837 13.6523L59.9505 23.275L59.1998 23.3239C58.5941 23.3634 58.4492 23.4296 58.4492 23.6676C58.4492 23.8298 58.5541 24.0033 58.6824 24.0532C58.8106 24.1032 61.7797 24.1289 65.2802 24.1104L71.6447 24.0769L71.6943 23.7226C71.7418 23.3849 71.6836 23.3664 70.4301 23.3217L69.1162 23.275L69.0222 14.4542C68.9201 4.86801 68.9208 4.87411 67.9854 3.12983C66.8586 1.02887 64.9352 0.0460644 61.9402 0.0407719C58.6894 0.0349983 56.5675 1.30985 55.2835 4.04014C54.9426 4.76521 54.738 5.03224 54.5725 4.96777C54.4448 4.91805 54.3404 4.77227 54.3404 4.6438C54.3404 4.18961 53.3859 2.40973 52.8317 1.83076C51.4225 0.358322 49.1813 -0.256731 46.5179 0.0980272ZM89.8972 0.0443001C89.0736 0.122244 87.4078 0.877147 86.5652 1.55443C86.2448 1.81199 85.6723 2.48992 85.2929 3.06119C84.9136 3.63229 84.55 4.10188 84.4847 4.10461C84.4194 4.1075 84.3662 3.35019 84.3662 2.42175C84.3662 0.757504 84.3605 0.731684 83.9608 0.577399C83.7273 0.487427 81.3568 0.42103 78.37 0.42103C73.8903 0.42103 73.1572 0.454709 72.9825 0.668334C72.6617 1.06062 72.9704 1.20336 74.2524 1.25516L75.4375 1.30311L75.4778 18.1256C75.5071 30.4229 75.47 35.0065 75.3398 35.1658C75.2195 35.313 74.7867 35.3836 74.0052 35.3836C73.369 35.3836 72.8135 35.4412 72.7707 35.5116C72.4714 36.003 72.945 36.0277 81.8478 35.9863C89.652 35.9501 90.7664 35.9149 90.7664 35.7044C90.7664 35.5005 90.3095 35.4571 87.7757 35.42C85.8961 35.3926 84.7072 35.3108 84.5756 35.2C84.4084 35.0592 84.3662 33.7821 84.3662 28.8636C84.3662 23.3797 84.3938 22.6928 84.6176 22.6057C84.7706 22.5461 85.0092 22.6579 85.2273 22.8914C86.5729 24.3321 87.1524 24.5288 90.0553 24.5304C92.1301 24.5316 92.4633 24.4912 93.5803 24.1019C96.9348 22.9332 98.4906 21.184 99.4767 17.4722C99.8391 16.1082 99.9053 15.4896 99.971 12.8464C100.037 10.1966 100.004 9.58235 99.7218 8.17663C99.1313 5.23752 98.5105 3.8788 97.0442 2.3151C96.2734 1.49316 95.8055 1.19197 93.8282 0.245576C93.5052 0.0909705 90.8446 -0.0451912 89.8972 0.0443001ZM16.5711 2.31767C17.6236 3.08797 17.8083 4.27974 17.9306 11.0862C18.0582 18.1811 17.6468 21.4937 16.4926 22.6651C16.0112 23.1536 15.8925 23.1947 14.9671 23.1937C13.8381 23.1926 13.3321 22.9425 12.7006 22.0739C11.7842 20.8132 11.7512 20.5067 11.7512 13.2513C11.7512 7.28973 11.7807 6.50355 12.0342 5.71353C12.4661 4.36731 12.9375 3.50495 13.6189 2.81324C14.5745 1.84359 15.6716 1.65931 16.5711 2.31767ZM89.3601 2.2726C90.3982 2.92711 90.6849 5.04363 90.6863 12.0631C90.6877 19.3693 90.4176 21.4375 89.3122 22.5865C88.7536 23.1671 88.6801 23.1948 87.702 23.1948C86.3452 23.1948 85.7805 22.8166 85.1483 21.4847C84.4202 19.9507 84.312 18.6011 84.4103 12.2891C84.5008 6.47036 84.5854 5.72026 85.3145 4.26964C86.3003 2.30885 88.0486 1.44585 89.3601 2.2726Z" fill="#56A75D"/>
</svg>
