<svg width="23" height="24" viewBox="0 0 23 24" fill="none" xmlns="http://www.w3.org/2000/svg">
<path d="M17.7637 14.4868C18.1452 14.6508 18.3087 15.1975 18.3087 15.4708C18.3632 15.9081 18.2542 16.1268 18.0907 16.1268C17.9272 16.1268 17.7092 15.9628 17.4912 15.5801C17.2732 15.1975 17.1642 14.8148 17.2732 14.5961C17.4367 14.4868 17.6002 14.4321 17.7637 14.4868Z" fill="#F28A1A"/>
<path d="M15.5298 16.1809C15.7478 16.1809 16.0203 16.2902 16.2928 16.5089C16.7287 16.8916 16.8922 17.3289 16.6742 17.6569C16.5653 17.8209 16.2928 17.9303 16.0748 17.9303C15.8023 17.9303 15.5298 17.8209 15.3663 17.6569C14.9304 17.2743 14.8214 16.7276 15.0939 16.3996C15.1484 16.2902 15.3118 16.1809 15.5298 16.1809Z" fill="#F28A1A"/>
<path d="M10.3526 20.5002C4.68507 20.5002 0.107422 15.9082 0.107422 10.2774C0.107422 4.64671 4.68507 0 10.3526 0C16.0202 0 20.5978 4.59205 20.5978 10.2774C20.5978 12.1908 20.0529 13.9948 19.181 15.5255C19.1265 15.5802 19.072 15.5802 19.072 15.4708C18.6905 12.9561 17.1646 11.5894 14.9848 11.1521C14.7668 11.0974 14.7668 10.9881 15.0393 10.9881C15.7477 10.9334 16.6741 10.9334 17.2191 11.0428C17.2736 10.7694 17.2736 10.4961 17.2736 10.2774C17.2736 6.56007 14.2218 3.4987 10.5161 3.4987C6.81041 3.4987 3.75864 6.56007 3.75864 10.2774C3.75864 13.9948 6.81041 17.0562 10.5161 17.0562H10.8431C10.7341 16.4548 10.6796 15.8535 10.7341 15.1975C10.7341 14.7601 10.8431 14.7055 11.0066 15.0335C11.933 16.6735 13.2954 18.0948 15.9112 18.6962C18.0365 19.1882 20.1619 19.7349 22.5052 22.6322C22.7232 22.9056 22.3962 23.1789 22.1782 22.9602C19.8349 20.8829 17.7096 20.1722 15.7477 20.1722C13.2954 20.2269 11.824 20.5002 10.3526 20.5002Z" fill="#F28A1A"/>
</svg>
