<svg width="19" height="19" viewBox="0 0 19 19" fill="none" xmlns="http://www.w3.org/2000/svg">
<path fill-rule="evenodd" clip-rule="evenodd" d="M8.75033 2.41675C7.07062 2.41675 5.45971 3.08401 4.27198 4.27174C3.08425 5.45947 2.41699 7.07038 2.41699 8.75008C2.41699 10.4298 3.08425 12.0407 4.27198 13.2284C5.45971 14.4162 7.07062 15.0834 8.75033 15.0834C10.43 15.0834 12.0409 14.4162 13.2287 13.2284C14.4164 12.0407 15.0837 10.4298 15.0837 8.75008C15.0837 7.07038 14.4164 5.45947 13.2287 4.27174C12.0409 3.08401 10.43 2.41675 8.75033 2.41675ZM3.21132 3.21108C4.68036 1.74204 6.6728 0.916748 8.75033 0.916748C10.8279 0.916748 12.8203 1.74204 14.2893 3.21108C15.7584 4.68011 16.5837 6.67255 16.5837 8.75008C16.5837 10.5747 15.9471 12.3337 14.7968 13.7302L18.0311 16.9702L16.9695 18.0299L13.7367 14.7914C12.3393 15.9449 10.5777 16.5834 8.75033 16.5834C6.6728 16.5834 4.68036 15.7581 3.21132 14.2891C1.74229 12.8201 0.916992 10.8276 0.916992 8.75008C0.916992 6.67255 1.74229 4.68011 3.21132 3.21108Z" fill="#8F8F8F"/>
</svg>
