<svg width="67" height="21" viewBox="0 0 67 21" fill="none" xmlns="http://www.w3.org/2000/svg">
<path d="M61.9647 0.789551H57.7885C56.5259 0.789551 55.5546 1.17355 54.9719 2.42153L47.0078 20.3733H52.6409C52.6409 20.3733 53.6122 17.9733 53.8064 17.3973C54.3892 17.3973 59.9252 17.3973 60.7021 17.3973C60.8964 18.0693 61.382 20.2773 61.382 20.2773H66.4324L61.9647 0.789551ZM55.3604 13.3654C55.846 12.2134 57.4971 7.89346 57.4971 7.89346C57.4971 7.98946 57.9827 6.74147 58.1769 6.06948L58.5654 7.79746C58.5654 7.79746 59.6338 12.5014 59.828 13.4614H55.3604V13.3654Z" fill="#3362AB"/>
<path d="M47.3957 13.9406C47.3957 17.9725 43.705 20.6605 37.9747 20.6605C35.5467 20.6605 33.2157 20.1805 31.9531 19.6045L32.7301 15.1885L33.41 15.4765C35.1582 16.2445 36.3237 16.5325 38.4604 16.5325C40.0143 16.5325 41.6654 15.9565 41.6654 14.6125C41.6654 13.7486 40.9856 13.1726 38.8489 12.2126C36.8093 11.2526 34.0898 9.71661 34.0898 6.93265C34.0898 3.0927 37.8776 0.500732 43.2194 0.500732C45.259 0.500732 47.0072 0.884727 48.0755 1.36472L47.2985 5.58867L46.9101 5.20467C45.9388 4.82068 44.6762 4.43668 42.8309 4.43668C40.7913 4.53268 39.8201 5.39667 39.8201 6.16466C39.8201 7.02865 40.9856 7.70064 42.8309 8.56462C45.9388 10.0046 47.3957 11.6366 47.3957 13.9406Z" fill="#3362AB"/>
<path d="M0 0.982139L0.0971229 0.598145H8.44969C9.61517 0.598145 10.4893 0.982139 10.7806 2.23012L12.626 10.87C10.7806 6.26207 6.50723 2.51812 0 0.982139Z" fill="#F9B50B"/>
<path d="M24.3798 0.789602L15.9301 20.2774H10.1999L5.34375 3.95756C8.84017 6.16554 11.7539 9.62149 12.8222 12.0215L13.405 14.0374L18.6496 0.693604H24.3798V0.789602Z" fill="#3362AB"/>
<path d="M26.6102 0.693604H31.952L28.5527 20.2774H23.2109L26.6102 0.693604Z" fill="#3362AB"/>
</svg>
