<svg width="36" height="12" viewBox="0 0 36 12" fill="none" xmlns="http://www.w3.org/2000/svg">
<path d="M13.0918 11.1223L14.8809 0.189453H17.7446L15.9535 11.1223H13.0918Z" fill="#005098"/>
<path d="M26.3392 0.458778C25.5168 0.149114 24.648 -0.00615893 23.7734 0.000186929C20.9439 0.000186929 18.9435 1.48275 18.9334 3.60818C18.9173 5.1787 20.3562 6.054 21.443 6.57751C22.5297 7.10101 22.9322 7.4549 22.9261 7.93234C22.9261 8.66524 22.0366 9.00029 21.2135 9.00029C20.2841 9.02878 19.361 8.83237 18.5169 8.42653L18.1486 8.25272L17.7461 10.7006C18.4162 11.0043 19.6519 11.2702 20.9358 11.2828C23.9545 11.2828 25.9005 9.81696 25.9226 7.54913C25.9347 6.30528 25.17 5.35879 23.5198 4.57772C22.5136 4.07306 21.9098 3.74011 21.9098 3.22288C21.9098 2.76848 22.429 2.28267 23.55 2.28267C24.2846 2.26577 25.0145 2.4084 25.6932 2.70147L25.9488 2.82711L26.3372 0.458778" fill="#005098"/>
<path d="M33.682 0.197266H31.4684C30.7841 0.197266 30.2609 0.39201 29.9691 1.10398L25.7168 11.1218H28.7234C28.7234 11.1218 29.2144 9.77532 29.3271 9.48006H32.9938C33.0803 9.86327 33.3419 11.1176 33.3419 11.1176H35.9984L33.682 0.197266ZM30.1502 7.24365C30.3877 6.61544 31.2913 4.18847 31.2913 4.18847C31.2913 4.18847 31.5267 3.56026 31.6716 3.14146L31.8729 4.08377L32.535 7.23946L30.1502 7.24365Z" fill="#005098"/>
<path d="M10.6907 0.197266L7.88735 7.65198L7.5875 6.138C7.06628 4.38531 5.4362 2.50069 3.625 1.5521L6.18885 11.1113H9.21556L13.7234 0.197266H10.6907Z" fill="#005098"/>
<path d="M5.28558 0.198318H0.669037L0.632812 0.426565C4.22905 1.3249 6.60171 3.51106 7.58781 6.13905L6.58159 1.11341C6.40852 0.420284 5.90541 0.21507 5.28357 0.189941" fill="#F7A600"/>
</svg>
